<mxfile host="app.diagrams.net" modified="2024-04-17T12:29:10.938Z" agent="Mozilla/5.0 (Windows NT 10.0; Win64; x64; rv:124.0) Gecko/20100101 Firefox/124.0" version="24.2.5" etag="N7R52hMi8UmM4F5szqfT" type="github">
  <diagram name="Page-1" id="spMuYxMs-dWkQ7CkFNsx">
    <mxGraphModel>
      <root>
        <mxCell id="0" />
        <mxCell id="1" parent="0" />
      </root>
    </mxGraphModel>
  </diagram>
</mxfile>
